<?xml version="1.0" standalone="no"?>
<!DOCTYPE svg PUBLIC "-//W3C//DTD SVG 20010904//EN"
 "http://www.w3.org/TR/2001/REC-SVG-20010904/DTD/svg10.dtd">
<svg version="1.0" xmlns="http://www.w3.org/2000/svg"
 width="1024.000000pt" height="768.000000pt" viewBox="0 0 1024.000000 768.000000"
 preserveAspectRatio="xMidYMid meet">
<metadata>
Created by potrace 1.15, written by Peter Selinger 2001-2017
</metadata>
<g transform="translate(0.000000,768.000000) scale(0.100000,-0.100000)"
fill="#000000" stroke="none">
<path d="M0 3840 l0 -3840 5120 0 5120 0 0 3840 0 3840 -5120 0 -5120 0 0
-3840z m3640 2213 c-12 -59 -25 -127 -29 -151 -17 -88 -10 -311 15 -452 23
-133 38 -202 50 -234 5 -14 -4 -16 -72 -17 -44 0 -121 -4 -172 -7 l-92 -7 0
36 c0 146 97 485 207 724 95 207 105 226 110 222 2 -3 -5 -54 -17 -114z m49
-70 c-2 -202 83 -485 206 -687 25 -41 45 -78 45 -83 0 -4 -49 -9 -108 -10
l-108 -3 -17 48 c-58 168 -78 655 -32 790 10 27 14 8 14 -55z m1456 -68 c52
-39 127 -102 166 -140 118 -114 322 -366 308 -380 -7 -7 -193 119 -274 185
-76 63 -148 136 -212 215 -44 55 -143 205 -143 218 0 12 51 -20 155 -98z m891
-121 c92 -51 311 -199 429 -288 66 -50 184 -154 263 -232 133 -132 167 -176
125 -159 -10 3 -69 11 -133 17 -82 7 -129 17 -165 33 -69 32 -223 171 -323
290 -77 92 -234 314 -248 349 -8 21 -2 20 52 -10z m-2820 -224 c-10 -52 -16
-138 -16 -235 0 -150 0 -153 -22 -159 -34 -9 -88 -7 -88 3 0 73 121 494 137
477 2 -2 -3 -41 -11 -86z m3683 -125 c85 -104 231 -328 231 -356 0 -13 -17
-11 -57 7 -29 15 -43 34 -93 138 -50 102 -101 189 -197 326 -31 45 55 -40 116
-115z m-735 -191 c70 -52 101 -80 90 -82 -38 -8 -206 19 -251 41 l-47 22 -41
120 c-22 66 -46 130 -53 142 -24 43 -10 34 91 -64 57 -55 152 -135 211 -179z
m-618 37 c44 -21 106 -52 139 -68 l60 -28 -108 -3 c-99 -2 -110 -1 -150 23
-28 16 -63 53 -100 104 -82 114 -81 121 5 63 42 -28 111 -69 154 -91z m-653
-314 c118 -100 213 -165 322 -223 l105 -56 0 -61 c-1 -54 -2 -60 -14 -44 -7 9
-16 17 -20 17 -10 0 -7 -38 4 -45 24 -15 8 -27 -27 -22 -106 17 -179 22 -286
20 -108 -1 -118 0 -111 15 11 27 17 72 9 72 -4 0 -14 -8 -21 -17 -12 -16 -13
-10 -14 45 0 34 2 62 4 62 2 0 41 -18 87 -39 166 -78 334 -119 334 -82 0 8
-37 36 -83 63 -145 83 -311 232 -424 380 -103 134 -108 151 -17 57 46 -47 115
-111 152 -142z m-477 72 c16 -5 52 -31 82 -57 30 -26 72 -61 93 -78 72 -58
108 -111 133 -197 38 -127 43 -174 19 -200 -34 -38 -34 -45 -2 -82 31 -35 31
-36 27 -123 -6 -103 -30 -177 -101 -315 -88 -170 -194 -277 -355 -357 -111
-56 -183 -71 -353 -75 -117 -3 -164 0 -235 16 -156 33 -227 58 -263 92 -30 29
-107 171 -154 287 -11 25 -93 194 -183 376 -162 326 -165 333 -171 411 -7 100
7 113 36 35 26 -71 58 -125 72 -120 7 2 10 60 10 170 l-2 167 33 6 c18 3 58 5
88 3 l55 -3 16 -90 c30 -171 43 -173 54 -9 5 82 10 106 23 113 10 5 114 11
232 15 118 3 274 9 345 12 l130 7 176 -174 c175 -174 326 -313 318 -294 -7 17
-109 198 -141 250 -47 77 -108 196 -108 211 0 17 85 19 126 3z m1345 -28 l47
-1 21 -78 c23 -85 25 -102 14 -102 -11 0 -193 170 -193 180 0 4 15 6 33 4 17
-1 53 -3 78 -3z m676 -15 c251 -4 322 -9 420 -27 65 -12 129 -28 141 -36 13
-8 42 -52 64 -99 38 -78 61 -101 70 -72 3 7 -4 42 -14 78 -23 85 -23 89 5 83
31 -8 85 -70 97 -112 22 -80 13 -110 -88 -286 -67 -117 -184 -349 -242 -480
-37 -84 -177 -360 -203 -402 -32 -51 -92 -103 -119 -103 -11 0 -57 -7 -101
-16 -63 -13 -115 -15 -236 -11 -180 6 -256 23 -391 90 -69 34 -103 60 -180
137 -109 108 -163 199 -201 336 -36 132 -39 187 -18 291 18 83 18 95 5 115 -8
13 -16 52 -18 88 l-3 65 30 -4 c17 -1 86 -18 155 -37 169 -47 385 -74 518 -67
57 3 110 11 119 19 15 11 6 18 -74 57 -82 40 -215 126 -228 147 -5 7 13 223
20 247 3 9 28 11 87 8 46 -3 219 -7 385 -9z m-3662 -237 l30 -13 -34 -4 c-18
-2 -51 -15 -73 -29 -37 -25 -39 -29 -33 -64 6 -36 5 -39 -22 -44 -66 -15 -122
-37 -137 -54 -27 -30 -4 -32 50 -6 76 37 80 35 75 -37 -9 -162 68 -398 156
-482 46 -44 151 -100 217 -117 39 -9 66 -28 130 -87 45 -41 131 -107 191 -147
96 -63 145 -110 145 -140 0 -13 -157 8 -270 36 -198 50 -339 129 -480 269
-175 173 -270 369 -287 588 -8 105 8 179 56 254 49 78 91 100 186 94 39 -2 84
-10 100 -17z m4730 -15 c101 -26 150 -91 182 -244 18 -89 8 -191 -33 -324 -63
-200 -211 -397 -394 -523 -68 -46 -246 -143 -314 -170 -172 -69 -268 -86 -305
-56 -22 18 -23 21 -8 49 21 41 32 49 154 111 59 29 125 68 147 86 48 39 86 63
178 110 64 33 188 123 188 136 0 3 17 24 37 46 48 54 98 132 124 197 18 42 22
76 24 171 1 64 5 120 8 123 3 4 26 -1 51 -9 33 -11 48 -13 53 -4 3 6 2 12 -4
14 -5 2 -28 17 -51 33 -32 24 -42 40 -52 78 -10 43 -16 51 -56 70 -43 21 -44
22 -44 72 0 48 1 50 28 50 15 0 55 -7 87 -16z m-255 -164 l0 -79 -62 -73 c-34
-40 -71 -82 -83 -93 -11 -11 -36 -42 -54 -68 -18 -27 -35 -46 -38 -43 -7 6
174 352 202 386 6 8 15 23 18 33 12 34 17 16 17 -63z m-4191 -186 c51 -102 90
-188 88 -190 -3 -3 -27 26 -55 64 -28 38 -64 79 -81 91 -17 13 -35 30 -40 39
-13 25 -25 196 -14 189 6 -4 51 -90 102 -193z m-270 87 c34 -31 42 -46 54
-106 8 -38 18 -77 21 -86 6 -14 -3 -17 -51 -23 -69 -8 -88 -18 -79 -41 5 -13
13 -15 37 -10 17 4 50 4 73 1 35 -6 44 -12 55 -39 27 -63 83 -171 102 -199 11
-15 19 -28 17 -28 -14 0 -117 45 -151 67 -57 36 -84 67 -119 141 -44 92 -68
193 -68 294 l0 86 35 -11 c19 -5 52 -26 74 -46z m4655 -176 c-14 -150 -134
-335 -276 -430 -21 -13 -38 -23 -38 -21 0 2 17 30 39 62 21 33 54 89 74 126
40 72 77 118 97 118 8 0 10 9 6 28 -16 62 -18 83 -11 99 5 10 10 27 11 38 2
11 23 37 46 57 42 37 43 37 51 15 5 -12 5 -53 1 -92z m-2225 94 c36 -6 80 -20
97 -30 28 -17 33 -26 39 -77 10 -84 61 -265 91 -325 40 -79 98 -160 166 -232
212 -227 559 -311 956 -229 17 3 32 2 32 -3 0 -18 -130 -170 -216 -253 -162
-155 -525 -378 -807 -495 -279 -115 -467 -139 -668 -86 -156 42 -593 224 -799
333 -234 124 -389 250 -519 422 -65 85 -115 166 -107 173 1 2 30 -6 63 -16
151 -48 260 -63 418 -58 211 7 331 43 470 143 166 118 308 338 362 559 28 115
40 142 66 157 50 27 244 36 356 17z m2011 -55 c-15 -89 -27 -111 -69 -125 -20
-6 -55 -22 -78 -36 -24 -13 -43 -20 -43 -15 0 23 186 250 196 239 2 -2 -1 -30
-6 -63z m-4128 -181 c47 -45 68 -107 68 -195 0 -52 -3 -68 -14 -68 -17 0 -97
160 -125 248 l-19 64 26 -7 c15 -3 44 -23 64 -42z m4083 -10 c-4 -10 -16 -45
-27 -78 -36 -111 -126 -263 -169 -286 -19 -10 -20 -8 -16 20 3 16 8 35 12 41
4 7 7 56 6 110 l-2 98 39 31 c37 29 136 81 156 81 4 0 5 -8 1 -17z m-251 -149
c12 -31 5 -140 -12 -184 -13 -34 -30 -53 -72 -82 -30 -20 -63 -37 -73 -37 -16
-1 -14 7 16 62 19 35 49 97 67 138 54 127 61 137 74 103z m-2464 -1256 c164
-93 241 -130 407 -193 l145 -57 118 11 c149 14 149 14 126 -4 -12 -9 -42 -15
-72 -15 -52 0 -55 -2 -112 -61 l-59 -61 -84 42 c-137 69 -202 90 -318 101 -58
5 -125 17 -149 26 -40 15 -45 22 -112 152 -92 178 -92 179 -43 148 21 -13 90
-53 153 -89z m1200 -34 c0 -15 -10 -36 -23 -48 -25 -23 -195 -158 -213 -169
-14 -8 -74 14 -74 28 1 5 20 24 43 40 23 17 87 62 142 102 55 40 106 72 113
73 6 0 12 -12 12 -26z m-952 -30 c245 -105 453 -120 666 -48 39 13 72 21 75
19 2 -3 2 -6 0 -8 -2 -1 -25 -17 -51 -35 -88 -61 -321 -83 -448 -41 -60 19
-239 96 -277 118 -27 16 -7 13 35 -5z m668 -851 c26 -40 44 -74 44 -86 0 -5
-39 -50 -87 -99 -101 -102 -101 -103 -104 -149 -3 -47 5 -67 73 -186 70 -122
70 -111 16 -335 -32 -134 -34 -138 -91 -208 -32 -38 -62 -70 -67 -70 -4 0 -17
16 -28 35 -30 50 -36 135 -18 230 27 134 24 148 -79 394 -55 131 -57 120 38
233 54 65 87 128 87 167 0 9 -9 27 -20 41 -11 14 -20 28 -20 32 0 3 29 -5 64
-19 l63 -25 49 36 c27 19 52 36 55 36 4 0 15 -12 25 -27z m-270 -30 c44 -60
42 -63 -84 -219 -61 -74 -64 -79 -57 -118 3 -23 30 -100 60 -171 30 -72 58
-146 61 -164 8 -39 -15 -261 -27 -261 -30 0 -197 428 -231 592 l-12 60 71 66
c39 38 96 105 127 155 32 48 61 87 65 87 4 0 16 -12 27 -27z m488 -112 c35
-19 73 -31 96 -31 48 0 53 -12 45 -115 -12 -142 -54 -256 -131 -356 -96 -125
-299 -343 -259 -280 4 7 9 32 11 56 2 24 12 80 24 124 26 104 25 118 -9 174
-60 94 -111 194 -111 219 0 30 40 86 110 153 51 49 80 99 80 137 0 17 6 15 43
-16 23 -19 69 -48 101 -65z"/>
</g>
</svg>
