<?xml version="1.0" standalone="no"?>
<!DOCTYPE svg PUBLIC "-//W3C//DTD SVG 20010904//EN"
 "http://www.w3.org/TR/2001/REC-SVG-20010904/DTD/svg10.dtd">
<svg version="1.0" xmlns="http://www.w3.org/2000/svg"
 width="586.000000pt" height="636.000000pt" viewBox="0 0 586.000000 636.000000"
 preserveAspectRatio="xMidYMid meet">
<metadata>
Created by potrace 1.15, written by Peter Selinger 2001-2017
</metadata>
<g transform="translate(0.000000,636.000000) scale(0.100000,-0.100000)"
fill="#000000" stroke="none">
<path d="M1452 5608 c-99 -209 -136 -299 -182 -433 -28 -82 -57 -179 -65 -215
-16 -71 -45 -246 -45 -271 0 -14 19 -16 173 -11 94 2 174 6 176 8 2 2 -6 43
-17 91 -44 184 -55 292 -49 476 5 155 19 259 52 390 13 50 -13 29 -43 -35z"/>
<path d="M1500 5535 c-23 -92 -20 -535 3 -674 10 -57 26 -120 37 -141 l19 -38
108 5 c59 3 110 7 112 9 2 2 -10 25 -27 51 -51 81 -118 223 -156 331 -42 122
-66 246 -75 402 l-7 115 -14 -60z"/>
<path d="M2821 5488 c7 -13 35 -57 62 -98 44 -66 79 -110 177 -224 60 -70 366
-292 390 -284 28 9 -240 336 -352 430 -122 103 -256 198 -278 198 -7 0 -7 -8
1 -22z"/>
<path d="M3800 5310 c0 -16 163 -252 230 -335 121 -148 304 -312 372 -334 18
-5 78 -15 133 -21 55 -6 117 -13 139 -16 24 -4 37 -2 35 4 -2 6 -40 50 -83 97
-167 183 -447 399 -742 573 -74 44 -84 48 -84 32z"/>
<path d="M1032 5108 c-54 -145 -112 -371 -112 -434 0 -22 3 -23 53 -17 28 3
54 7 56 9 2 2 3 66 2 141 -2 103 3 168 19 257 11 65 19 120 17 123 -2 2 -18
-34 -35 -79z"/>
<path d="M759 5103 c-43 -110 -68 -249 -69 -383 -2 -153 -3 -146 18 -119 16
20 20 50 25 179 6 135 21 249 43 328 9 31 -4 27 -17 -5z"/>
<path d="M4604 5053 c78 -103 140 -203 199 -324 64 -131 89 -159 143 -159 13
0 24 2 24 4 0 11 -90 161 -143 239 -63 92 -232 287 -249 287 -5 0 6 -21 26
-47z"/>
<path d="M3678 5024 c-4 -3 3 -27 16 -53 13 -25 38 -92 56 -149 31 -100 32
-103 73 -121 68 -30 287 -61 287 -41 0 4 -12 16 -27 25 -105 67 -236 178 -347
293 -28 29 -55 50 -58 46z"/>
<path d="M1910 5005 c0 -18 94 -251 111 -274 17 -23 27 -27 57 -25 20 1 39 2
41 3 2 1 -9 17 -24 37 -48 63 -154 224 -160 245 -5 16 -25 28 -25 14z"/>
<path d="M3140 4922 c0 -22 129 -188 166 -214 37 -26 46 -27 152 -28 78 0 113
3 110 11 -2 6 -40 26 -84 44 -45 19 -97 42 -115 53 -44 25 -178 108 -206 128
-13 9 -23 12 -23 6z"/>
<path d="M2480 4705 c0 -34 163 -236 273 -341 97 -91 223 -184 300 -220 47
-23 47 -50 -1 -46 -49 3 -207 58 -297 101 -44 22 -83 37 -87 34 -11 -6 -8
-132 3 -138 4 -3 10 4 14 15 3 11 11 20 17 20 6 0 7 -7 3 -17 -4 -10 -10 -30
-12 -44 l-5 -26 129 4 c81 3 161 -1 218 -10 50 -8 94 -12 98 -10 4 3 1 16 -8
30 -9 14 -14 28 -10 31 4 4 11 -1 16 -11 19 -33 29 -17 29 48 l0 65 -72 36
c-173 86 -332 206 -495 371 -62 63 -113 111 -113 108z"/>
<path d="M1615 4535 c-121 -7 -269 -14 -330 -14 -60 -1 -115 -5 -121 -9 -9 -5
-34 -162 -34 -211 0 -6 -4 -11 -9 -11 -4 0 -15 46 -24 101 -8 56 -19 104 -24
108 -4 4 -46 4 -93 1 l-85 -5 0 -167 c0 -92 -3 -170 -7 -173 -7 -8 -45 64 -73
138 -28 74 -38 59 -33 -50 5 -98 5 -98 72 -226 101 -195 158 -310 221 -447
192 -417 200 -428 324 -465 144 -43 230 -56 348 -56 246 2 368 39 536 165 165
123 319 412 321 603 1 76 -1 84 -26 110 -34 36 -34 38 -3 75 30 36 29 52 -17
203 -28 93 -35 104 -87 155 -70 69 -177 161 -205 177 -25 15 -156 17 -156 3 0
-10 105 -207 121 -226 19 -23 128 -225 120 -222 -14 5 -133 117 -306 288 -100
99 -169 160 -185 163 -14 2 -124 -1 -245 -8z"/>
<path d="M3480 4511 c0 -21 186 -194 200 -186 9 5 -12 110 -31 156 -8 20 -20
28 -47 33 -54 9 -122 7 -122 -3z"/>
<path d="M3796 4509 c-6 -19 -26 -201 -26 -236 0 -23 12 -36 71 -78 39 -27
112 -71 161 -96 109 -55 105 -59 -67 -66 -150 -6 -280 11 -507 69 -109 28
-171 39 -177 33 -12 -12 1 -116 20 -162 11 -27 10 -43 -5 -108 -14 -57 -16
-94 -11 -143 8 -79 44 -206 77 -277 95 -204 284 -354 523 -416 93 -25 360 -26
484 -3 152 29 160 40 424 599 57 121 143 290 191 375 109 193 121 227 106 292
-19 76 -87 149 -126 134 -10 -4 -8 -21 7 -76 19 -67 20 -100 2 -100 -4 0 -23
34 -42 75 -50 113 -58 119 -192 143 -136 26 -215 31 -584 37 -154 2 -290 7
-302 11 -15 4 -24 2 -27 -7z"/>
<path d="M404 4271 c-47 -22 -82 -61 -115 -127 -31 -66 -39 -238 -14 -334 33
-133 69 -213 145 -325 138 -205 349 -351 598 -416 142 -37 282 -52 282 -31 0
36 -41 77 -132 133 -54 34 -137 98 -186 143 -71 66 -98 85 -136 95 -114 28
-239 114 -285 195 -55 98 -83 207 -88 349 -6 144 0 137 -87 96 -45 -22 -56
-23 -56 -8 0 14 74 45 128 54 43 7 43 7 40 47 -2 34 2 44 27 64 16 13 45 24
64 26 57 5 47 24 -23 42 -81 20 -110 19 -162 -3z"/>
<path d="M5220 4210 c0 -50 1 -51 44 -72 40 -19 46 -27 56 -70 10 -38 20 -54
52 -78 23 -16 46 -31 51 -33 6 -2 7 -8 4 -15 -6 -8 -19 -7 -49 4 -62 22 -68
16 -61 -63 12 -148 -30 -270 -140 -405 -73 -90 -136 -142 -232 -192 -38 -20
-88 -48 -111 -64 -22 -15 -69 -46 -103 -69 -34 -23 -96 -58 -139 -79 -88 -42
-108 -57 -129 -98 -15 -28 -14 -31 8 -49 20 -16 34 -18 76 -13 117 14 346 112
515 221 197 128 345 313 413 519 49 146 62 251 42 346 -32 153 -81 218 -182
244 -32 9 -72 16 -87 16 -27 0 -28 -2 -28 -50z"/>
<path d="M5063 4143 c-4 -10 -19 -36 -34 -58 -39 -60 -192 -356 -186 -361 3
-3 19 15 36 40 17 24 47 62 67 83 20 21 59 64 85 96 l49 58 0 80 c0 79 -5 95
-17 62z"/>
<path d="M785 4005 l7 -99 63 -67 c35 -37 78 -90 96 -118 29 -44 49 -63 49
-46 0 11 -202 410 -212 420 -7 7 -8 -20 -3 -90z"/>
<path d="M507 4053 c-10 -10 -8 -115 4 -196 31 -214 108 -326 270 -392 78 -31
97 -32 70 -4 -11 12 -44 72 -75 134 -50 102 -59 114 -91 125 -20 7 -52 9 -75
5 -32 -5 -40 -4 -40 8 0 20 22 27 79 27 26 0 50 3 54 6 3 4 0 21 -7 39 -8 17
-17 56 -21 84 -8 61 -46 111 -97 131 -18 7 -40 19 -49 27 -9 7 -19 10 -22 6z"/>
<path d="M4996 3848 c-66 -74 -159 -198 -152 -205 2 -2 40 14 84 37 44 22 85
40 91 40 6 0 16 12 22 28 18 44 38 156 29 165 -4 5 -37 -25 -74 -65z"/>
<path d="M5213 3882 c-33 -30 -44 -47 -52 -88 -7 -34 -7 -63 -1 -85 12 -42 12
-49 0 -49 -16 0 -46 -34 -76 -86 -50 -89 -107 -179 -131 -208 -13 -16 -22 -31
-19 -33 5 -5 65 25 82 41 6 6 28 25 48 41 73 59 177 221 206 320 13 46 10 177
-5 182 -5 1 -29 -14 -52 -35z"/>
<path d="M2726 3897 c-40 -10 -52 -18 -67 -47 -11 -19 -19 -42 -19 -50 0 -39
-44 -177 -80 -253 -101 -213 -245 -370 -405 -443 -211 -96 -444 -107 -724 -33
-62 16 -116 27 -119 24 -4 -3 0 -15 7 -27 7 -11 22 -37 33 -56 56 -100 208
-265 327 -355 174 -132 661 -363 1021 -483 80 -27 95 -28 245 -28 171 1 234
14 405 81 70 27 319 147 385 185 22 13 67 39 100 57 211 120 430 303 548 458
70 92 69 93 -78 67 -107 -19 -329 -14 -440 10 -319 68 -568 321 -649 656 -14
58 -28 125 -31 150 -6 40 -11 48 -48 69 -38 22 -54 24 -202 27 -103 2 -177 -1
-209 -9z"/>
<path d="M840 3705 c0 -29 78 -224 107 -267 16 -24 36 -44 46 -46 26 -5 24
119 -3 192 -19 50 -85 126 -109 126 -5 0 -16 3 -25 6 -11 4 -16 1 -16 -11z"/>
<path d="M4960 3659 c-25 -11 -68 -38 -97 -59 l-51 -39 -5 -113 c-3 -62 -8
-128 -12 -145 -10 -44 6 -42 53 5 54 55 132 209 179 355 7 22 -10 21 -67 -4z"/>
<path d="M4720 3478 c-12 -29 -46 -102 -76 -161 -30 -60 -54 -113 -54 -118 0
-15 36 -1 95 36 45 29 55 42 73 93 12 32 22 77 22 99 0 43 -17 103 -30 103 -4
0 -18 -24 -30 -52z"/>
<path d="M2114 2343 c3 -10 37 -79 76 -154 67 -130 72 -137 112 -152 24 -9 91
-21 149 -26 116 -11 179 -31 319 -100 l85 -43 47 51 c35 38 54 51 75 51 l27 0
-31 -28 c-17 -16 -42 -47 -57 -70 l-26 -41 16 -98 c14 -92 39 -237 50 -293 3
-14 22 -37 45 -53 38 -28 42 -28 89 -17 58 14 72 28 114 115 21 44 47 196 52
310 l5 100 -40 43 c-36 39 -43 43 -74 37 -54 -10 -64 -20 -44 -43 39 -43 9
-43 -43 1 -47 38 -51 57 -12 57 16 0 37 7 48 15 23 18 23 18 -126 4 l-118 -11
-148 58 c-185 70 -374 166 -557 281 -34 21 -38 22 -33 6z"/>
<path d="M3850 2251 c-124 -19 -236 -51 -279 -80 -14 -10 -56 -38 -92 -62 -36
-24 -89 -64 -117 -88 -58 -50 -58 -48 -66 -243 l-5 -118 46 0 c108 0 223 -34
198 -59 -7 -6 -28 -5 -65 5 -30 8 -85 14 -121 14 -66 0 -68 -1 -73 -27 -20
-103 -26 -160 -21 -197 7 -42 11 -46 110 -115 100 -68 106 -71 163 -71 75 0
521 101 561 127 4 2 -176 351 -191 370 -6 7 -15 11 -21 10 -21 -4 -6 36 40
107 41 64 223 421 223 438 0 13 -169 7 -290 -11z"/>
<path d="M3375 2167 c-55 -40 -119 -85 -142 -102 -23 -16 -42 -35 -43 -40 0
-14 60 -36 74 -28 18 11 188 146 213 169 24 23 32 74 11 74 -7 -1 -58 -33
-113 -73z"/>
<path d="M2474 2206 c20 -16 203 -96 306 -132 126 -45 367 -25 458 38 26 18
49 34 51 35 2 2 2 5 0 8 -3 2 -36 -6 -75 -19 -135 -46 -298 -57 -428 -30 -66
14 -190 56 -246 84 -19 10 -46 20 -60 24 -24 7 -24 6 -6 -8z"/>
<path d="M1963 1973 c-40 -3 -53 -8 -53 -20 0 -9 53 -104 118 -211 64 -107
125 -209 134 -225 23 -41 32 -125 19 -173 -7 -21 -14 -87 -18 -145 -5 -87 -3
-114 12 -152 17 -44 17 -48 -1 -97 -27 -75 -16 -80 103 -40 54 17 131 47 172
66 41 19 78 34 82 34 15 0 123 72 177 119 69 60 192 242 192 285 0 64 -13 166
-21 166 -5 0 -43 -21 -86 -46 -77 -46 -208 -114 -218 -114 -3 0 -5 9 -5 20 0
11 6 20 13 20 12 0 184 98 211 121 6 5 23 18 37 29 24 17 26 26 28 93 3 108
-2 115 -115 174 -162 85 -208 94 -489 98 -132 1 -264 1 -292 -2z"/>
<path d="M3136 1324 l-49 -36 -63 25 c-35 14 -64 22 -64 19 0 -4 9 -18 20 -32
11 -14 20 -32 20 -41 0 -39 -33 -102 -87 -167 -95 -113 -93 -102 -38 -233 103
-246 106 -260 79 -394 -18 -95 -12 -180 18 -230 11 -19 24 -35 28 -35 5 0 35
32 67 70 57 70 59 74 91 208 54 225 55 212 -18 339 -53 90 -64 118 -68 165
l-4 57 96 100 c53 56 96 105 96 110 0 18 -57 111 -69 111 -3 0 -28 -17 -55
-36z"/>
<path d="M2854 1243 c-31 -50 -88 -117 -127 -155 l-71 -66 12 -60 c34 -164
201 -592 231 -592 12 0 35 222 27 261 -3 18 -31 92 -61 164 -30 71 -57 148
-60 171 -7 39 -4 44 57 118 96 119 118 154 111 173 -9 25 -45 73 -54 73 -4 0
-33 -39 -65 -87z"/>
<path d="M3282 1237 c-9 -31 -30 -61 -69 -98 -74 -72 -113 -126 -113 -157 0
-25 51 -125 111 -219 35 -57 36 -68 3 -196 -14 -55 -23 -108 -21 -118 2 -9 0
-24 -5 -34 -23 -40 16 -4 110 101 215 242 260 329 277 529 8 103 3 115 -45
115 -40 0 -130 43 -191 91 -20 16 -39 29 -41 29 -2 0 -9 -20 -16 -43z"/>
</g>
</svg>
