<?xml version="1.0" standalone="no"?>
<!DOCTYPE svg PUBLIC "-//W3C//DTD SVG 20010904//EN"
 "http://www.w3.org/TR/2001/REC-SVG-20010904/DTD/svg10.dtd">
<svg version="1.0" xmlns="http://www.w3.org/2000/svg"
 width="350.000000pt" height="350.000000pt" viewBox="0 0 350.000000 350.000000"
 preserveAspectRatio="xMidYMid meet">
<metadata>
Created by potrace 1.14, written by Peter Selinger 2001-2017
</metadata>
<g transform="translate(0.000000,350.000000) scale(0.100000,-0.100000)"
fill="#000000" stroke="none">
<path d="M910 2985 l0 -196 68 3 67 3 3 63 3 62 54 0 55 0 0 -65 0 -66 68 3
67 3 3 193 2 192 -70 0 -70 0 0 -65 0 -65 -55 0 -55 0 0 65 0 65 -70 0 -70 0
0 -195z"/>
<path d="M1350 3115 l0 -65 55 0 55 0 0 -130 0 -130 70 0 70 0 0 130 0 130 55
0 55 0 0 65 0 65 -180 0 -180 0 0 -65z"/>
<path d="M1762 2988 l3 -193 65 0 65 0 5 85 5 85 35 -57 c19 -32 38 -58 42
-58 4 0 25 26 45 57 l38 56 3 -87 3 -87 67 3 67 3 3 193 2 192 -72 0 -73 0
-40 -65 -40 -65 -40 65 -40 65 -73 0 -72 0 2 -192z"/>
<path d="M2270 2985 l0 -196 158 3 157 3 3 63 3 62 -96 0 -95 0 0 130 0 130
-65 0 -65 0 0 -195z"/>
<path d="M727 2623 c-2 -5 8 -145 24 -313 15 -168 55 -613 88 -990 75 -841 67
-777 94 -783 12 -2 195 -52 407 -111 212 -59 394 -108 405 -108 25 0 827 220
837 230 3 4 27 239 53 522 25 283 54 612 65 730 18 198 69 758 73 805 2 20 -5
20 -1020 23 -562 1 -1024 -1 -1026 -5z m1654 -427 c2 -2 0 -59 -5 -125 l-9
-121 -487 0 c-268 0 -489 -2 -491 -5 -4 -3 15 -244 20 -262 1 -2 210 -3 466
-3 256 0 465 -2 465 -5 0 -17 -61 -688 -66 -726 l-6 -47 -56 -15 c-31 -9 -148
-41 -259 -72 l-202 -56 -241 66 c-133 36 -252 70 -264 75 -21 7 -23 18 -35
157 -6 81 -15 172 -18 201 l-6 52 126 0 126 0 6 -57 c3 -32 9 -80 13 -108 l7
-50 141 -38 141 -39 144 39 144 38 11 115 c6 63 14 139 16 168 l5 52 -443 0
-443 0 -5 43 c-5 35 -66 705 -66 722 0 6 1265 7 1271 1z"/>
</g>
</svg>
