<?xml version="1.0" standalone="no"?>
<!DOCTYPE svg PUBLIC "-//W3C//DTD SVG 20010904//EN"
 "http://www.w3.org/TR/2001/REC-SVG-20010904/DTD/svg10.dtd">
<svg version="1.0" xmlns="http://www.w3.org/2000/svg"
 width="350.000000pt" height="350.000000pt" viewBox="0 0 350.000000 350.000000"
 preserveAspectRatio="xMidYMid meet">
<metadata>
Created by potrace 1.15, written by Peter Selinger 2001-2017
</metadata>
<g transform="translate(0.000000,350.000000) scale(0.100000,-0.100000)"
fill="#000000" stroke="none">
<path d="M0 1750 l0 -1750 1750 0 1750 0 0 1750 0 1750 -1750 0 -1750 0 0
-1750z m1050 1370 l0 -60 50 0 50 0 0 60 0 60 75 0 75 0 0 -200 0 -201 -72 3
-73 3 -3 63 -3 62 -49 0 -50 0 0 -65 0 -66 -72 3 -73 3 -3 198 -2 197 75 0 75
0 0 -60z m668 -7 l-3 -68 -57 -3 -58 -3 0 -130 0 -130 -72 3 -73 3 -3 128 -3
127 -54 0 -55 0 0 70 0 70 190 0 191 0 -3 -67z m230 11 c38 -62 45 -61 82 11
l23 45 79 0 78 0 0 -200 0 -200 -70 0 -69 0 -3 85 -3 84 -35 -51 c-19 -28 -40
-53 -47 -55 -7 -3 -25 18 -40 46 -15 28 -31 51 -35 51 -5 0 -8 -36 -8 -80 l0
-80 -70 0 -70 0 0 200 0 200 78 0 77 -1 33 -55z m462 -69 l0 -125 90 0 90 0 0
-75 0 -75 -162 2 -163 3 -3 198 -2 197 75 0 75 0 0 -125z m370 -457 c0 -18 -4
-71 -10 -118 -5 -47 -14 -139 -20 -205 -9 -115 -27 -308 -49 -540 -6 -60 -15
-162 -21 -225 -5 -63 -19 -218 -30 -345 -11 -126 -25 -279 -30 -340 -6 -60
-13 -149 -16 -197 -5 -67 -11 -88 -23 -91 -9 -3 -65 -19 -126 -36 -60 -17
-123 -35 -140 -40 -16 -5 -68 -19 -115 -31 -47 -13 -137 -37 -200 -55 -228
-65 -244 -68 -291 -57 -63 14 -234 61 -283 76 -22 8 -77 23 -121 35 -70 18
-341 94 -386 108 -13 4 -18 31 -28 136 -6 73 -16 177 -21 232 -9 96 -18 202
-40 448 -18 204 -30 341 -40 442 -6 55 -14 152 -20 215 -5 63 -14 165 -20 225
-6 61 -15 162 -20 225 -6 63 -13 127 -16 143 l-6 27 1036 0 1036 0 0 -32z"/>
<path d="M1120 2183 c0 -7 15 -172 50 -578 5 -60 10 -122 10 -137 l0 -28 445
0 445 0 0 -29 c0 -63 -22 -285 -31 -308 -5 -12 -16 -23 -24 -23 -9 0 -72 -16
-141 -35 l-124 -35 -112 31 c-62 17 -125 33 -140 36 -15 3 -32 11 -38 18 -6 7
-13 56 -17 109 l-6 96 -119 0 -119 0 6 -87 c3 -49 11 -136 17 -196 l12 -107
70 -20 c39 -11 89 -25 111 -31 22 -6 60 -17 85 -24 25 -7 65 -18 90 -25 25 -7
58 -17 75 -23 55 -21 127 -11 325 45 107 31 209 59 227 63 17 3 36 12 41 18 5
7 14 75 21 152 6 77 16 183 21 235 18 172 30 315 30 342 l0 28 -462 2 -463 3
-12 85 c-6 47 -12 109 -12 138 l-1 52 489 0 489 0 6 78 c4 42 8 96 11 120 l5
42 -630 0 c-347 0 -630 -3 -630 -7z"/>
</g>
</svg>
