<?xml version="1.0" standalone="no"?>
<!DOCTYPE svg PUBLIC "-//W3C//DTD SVG 20010904//EN"
 "http://www.w3.org/TR/2001/REC-SVG-20010904/DTD/svg10.dtd">
<svg version="1.0" xmlns="http://www.w3.org/2000/svg"
 width="300.000000pt" height="300.000000pt" viewBox="0 0 300.000000 300.000000"
 preserveAspectRatio="xMidYMid meet">
<metadata>
Created by potrace 1.15, written by Peter Selinger 2001-2017
</metadata>
<g transform="translate(0.000000,300.000000) scale(0.100000,-0.100000)"
fill="#000000" stroke="none">
<path d="M1714 2901 c-2 -128 -58 -209 -259 -371 -228 -184 -263 -254 -193
-389 29 -57 218 -270 218 -246 0 5 -22 40 -49 79 -68 100 -92 151 -98 212 -10
93 42 169 216 320 115 99 188 209 198 299 7 54 -3 126 -20 149 -11 15 -13 6
-13 -53z"/>
<path d="M1852 2540 c-181 -65 -315 -175 -342 -282 -16 -64 6 -137 66 -218 54
-71 67 -127 40 -178 -25 -48 -4 -39 52 23 54 59 71 110 53 156 -5 14 -27 54
-50 88 -55 85 -66 121 -51 167 21 63 104 140 245 227 66 41 64 44 -13 17z"/>
<path d="M2010 1871 c-11 -8 -3 -11 34 -11 43 0 53 -4 87 -39 46 -45 51 -88
19 -150 -23 -46 -108 -124 -169 -156 -60 -31 -48 -31 36 0 212 79 297 240 176
332 -29 22 -48 28 -102 31 -36 1 -73 -2 -81 -7z"/>
<path d="M1135 1853 c-45 -10 -152 -47 -187 -65 -99 -49 2 -84 277 -94 261
-10 558 21 644 67 43 23 42 23 -90 4 -163 -22 -469 -36 -589 -26 -114 10 -140
16 -140 36 0 20 24 35 97 60 49 17 60 24 38 23 -16 0 -39 -2 -50 -5z"/>
<path d="M1110 1598 c-50 -34 -50 -53 2 -79 83 -42 293 -60 468 -39 90 11 239
39 253 47 5 3 -8 15 -28 27 -36 22 -38 22 -118 8 -94 -17 -453 -21 -502 -5
-21 7 -31 17 -35 37 l-5 27 -35 -23z"/>
<path d="M1163 1379 c-39 -25 -41 -38 -10 -67 67 -63 294 -87 487 -51 71 13
160 41 160 49 0 4 -22 17 -49 30 -45 20 -54 21 -112 12 -121 -20 -194 -23
-297 -13 -110 12 -147 24 -138 47 7 19 -3 17 -41 -7z"/>
<path d="M934 1245 c-70 -15 -150 -53 -179 -85 l-20 -22 22 -18 c26 -21 96
-34 288 -56 216 -25 655 -14 825 19 197 39 301 87 284 131 -7 18 -8 18 -15 -2
-4 -11 -19 -28 -32 -37 -33 -21 -178 -51 -322 -66 -155 -16 -594 -16 -705 0
-104 15 -196 39 -210 56 -16 19 20 44 102 70 80 26 59 31 -38 10z"/>
<path d="M2214 1100 c-34 -34 -257 -89 -449 -111 -122 -14 -444 -18 -600 -7
-131 9 -80 -7 72 -23 156 -16 566 -7 688 16 168 31 249 61 294 109 23 24 18
39 -5 16z"/>
<path d="M800 508 c0 -190 -4 -318 -11 -343 -7 -24 -27 -55 -49 -76 l-39 -37
24 -22 c21 -20 25 -21 51 -7 43 23 93 79 104 117 7 25 14 438 10 653 0 14 -9
17 -45 17 l-45 0 0 -302z"/>
<path d="M1063 633 c-60 -14 -63 -16 -63 -45 0 -28 2 -30 28 -23 15 3 59 9 98
12 90 6 114 -11 114 -81 l0 -43 -68 -5 c-80 -6 -154 -36 -177 -72 -42 -64 -25
-160 35 -191 46 -24 128 -19 175 10 49 30 55 30 55 5 0 -20 5 -22 35 -22 8 0
20 0 25 1 6 1 10 71 10 190 0 179 -1 190 -23 222 -38 56 -123 71 -244 42z
m177 -300 l0 -64 -42 -19 c-24 -11 -53 -20 -66 -20 -33 0 -72 43 -72 80 0 48
34 74 110 82 74 8 70 12 70 -59z"/>
<path d="M1940 632 c-60 -16 -65 -19 -62 -42 5 -33 5 -33 49 -21 21 6 63 11
94 11 72 0 99 -22 99 -84 l0 -43 -75 -6 c-135 -10 -202 -70 -192 -171 3 -40
11 -55 36 -78 27 -24 39 -28 94 -28 48 0 71 5 102 25 49 30 55 30 55 5 0 -20
5 -22 35 -22 8 0 20 0 25 1 6 1 10 70 10 186 0 207 -6 232 -62 261 -46 24
-133 27 -208 6z m178 -298 l3 -62 -44 -21 c-24 -12 -55 -21 -70 -21 -37 0 -67
33 -67 74 0 49 26 75 85 85 88 15 90 14 93 -55z"/>
<path d="M1406 616 c10 -43 131 -427 135 -430 11 -11 109 -12 117 -2 11 14 65
153 86 221 16 51 56 214 56 228 0 4 -21 7 -47 7 l-48 0 -19 -98 c-21 -110 -66
-262 -77 -262 -4 0 -10 15 -14 33 -4 17 -28 98 -53 180 l-46 147 -48 0 c-46 0
-48 -1 -42 -24z"/>
</g>
</svg>
