<?xml version="1.0" standalone="no"?>
<!DOCTYPE svg PUBLIC "-//W3C//DTD SVG 20010904//EN"
 "http://www.w3.org/TR/2001/REC-SVG-20010904/DTD/svg10.dtd">
<svg version="1.0" xmlns="http://www.w3.org/2000/svg"
 width="651.000000pt" height="400.000000pt" viewBox="0 0 651.000000 400.000000"
 preserveAspectRatio="xMidYMid meet">
<metadata>
Created by potrace 1.15, written by Peter Selinger 2001-2017
</metadata>
<g transform="translate(0.000000,400.000000) scale(0.100000,-0.100000)"
fill="#000000" stroke="none">
<path d="M2117 3725 c9 -139 -31 -259 -128 -382 -56 -69 -129 -135 -308 -278
-171 -137 -231 -194 -286 -275 -43 -62 -48 -75 -53 -139 -8 -122 42 -225 191
-393 74 -82 229 -228 212 -198 -4 8 -48 75 -98 149 -112 167 -138 224 -145
312 -11 159 59 273 278 455 346 287 468 549 360 770 l-29 59 6 -80z"/>
<path d="M2360 3105 c-274 -100 -479 -243 -548 -384 -55 -114 -37 -262 46
-378 125 -176 117 -159 117 -238 0 -64 -4 -78 -32 -124 l-33 -52 43 29 c93 65
170 169 183 249 9 61 -10 112 -90 231 -83 123 -101 179 -85 251 24 106 168
242 412 391 48 29 87 55 87 57 0 4 7 6 -100 -32z"/>
<path d="M3420 2030 c0 -327 -4 -507 -11 -542 -10 -45 -21 -62 -76 -116 l-64
-63 30 -35 c17 -19 31 -39 31 -45 0 -6 4 -6 13 1 6 5 41 29 77 52 68 45 119
109 142 176 8 26 13 185 15 550 l4 512 -80 0 -81 0 0 -490z"/>
<path d="M3933 2260 c-66 -10 -193 -48 -193 -58 0 -4 5 -24 11 -45 8 -29 14
-37 27 -33 169 52 283 47 337 -13 14 -16 20 -41 23 -90 l4 -68 -98 -6 c-176
-11 -272 -56 -318 -148 -60 -121 -14 -254 102 -294 86 -29 184 -13 276 45 52
33 66 30 66 -17 0 -21 4 -23 60 -23 l60 0 0 270 c0 309 -6 355 -57 410 -55 61
-177 90 -300 70z m205 -497 l-3 -98 -55 -32 c-45 -27 -64 -33 -113 -33 -51 0
-62 4 -88 29 -24 25 -29 38 -29 80 0 27 5 61 11 74 22 47 96 74 212 76 l68 1
-3 -97z"/>
<path d="M5350 2261 c-60 -9 -157 -35 -179 -50 -10 -6 -12 -20 -8 -46 3 -21 8
-39 9 -41 2 -1 37 6 78 17 140 37 259 18 288 -46 7 -14 12 -52 12 -84 l0 -58
-97 -6 c-98 -7 -165 -22 -219 -50 -34 -18 -86 -71 -104 -107 -17 -33 -18 -158
-1 -190 65 -122 256 -147 389 -50 23 16 46 30 52 30 5 0 10 -16 10 -35 l0 -35
61 0 60 0 -3 303 -3 302 -27 47 c-48 81 -170 119 -318 99z m198 -498 l-3 -97
-45 -30 c-36 -25 -58 -31 -112 -34 -60 -4 -69 -2 -92 21 -46 46 -47 144 -1
187 32 30 103 48 188 49 l68 1 -3 -97z"/>
<path d="M4390 2248 c0 -2 51 -167 113 -368 l113 -365 96 -3 95 -3 36 83 c70
165 129 355 176 571 l19 87 -78 0 -78 0 -17 -97 c-31 -178 -119 -493 -137
-493 -4 0 -10 12 -14 28 -15 70 -47 182 -99 347 -32 99 -59 188 -62 198 -5 14
-18 17 -84 17 -44 0 -79 -1 -79 -2z"/>
<path d="M2617 2026 c-26 -7 -49 -15 -51 -17 -3 -2 31 -4 74 -4 71 0 82 -3
122 -30 90 -63 114 -187 55 -285 -47 -80 -174 -192 -275 -244 -19 -10 -32 -19
-30 -22 14 -13 232 85 298 134 56 42 118 111 140 156 30 64 27 147 -7 203 -28
44 -100 99 -144 109 -53 13 -137 13 -182 0z"/>
<path d="M1265 2003 c-188 -26 -445 -124 -445 -168 0 -9 20 -24 45 -35 205
-88 932 -90 1345 -4 69 14 186 61 176 71 -2 2 -95 -7 -207 -21 -412 -52 -980
-57 -1097 -11 -93 37 -38 81 198 159 45 14 41 17 -15 9z"/>
<path d="M1162 1595 c-90 -49 -102 -77 -49 -117 50 -38 117 -58 255 -79 227
-34 523 -20 792 36 177 38 169 32 102 72 -31 20 -61 36 -67 36 -5 0 -75 -11
-155 -24 -127 -21 -178 -24 -410 -24 -270 1 -358 10 -408 42 -20 12 -23 20
-17 49 3 19 5 34 3 34 -2 -1 -22 -12 -46 -25z"/>
<path d="M1237 1233 c-67 -37 -73 -66 -21 -109 79 -67 270 -109 489 -109 155
1 288 20 430 61 140 40 139 39 43 86 l-83 40 -100 -19 c-78 -14 -149 -18 -320
-18 -287 0 -378 17 -387 72 l-3 22 -48 -26z"/>
<path d="M840 1011 c-105 -29 -219 -81 -256 -118 -39 -39 -41 -46 -15 -72 30
-30 109 -50 307 -76 734 -97 1560 -41 1878 128 67 35 85 62 65 98 l-13 24 -7
-35 c-9 -40 -24 -53 -98 -81 -209 -79 -923 -130 -1393 -99 -209 14 -313 27
-416 51 -109 26 -144 45 -140 78 5 39 94 80 253 114 11 3 -7 5 -40 5 -33 0
-89 -8 -125 -17z"/>
<path d="M2930 786 c-49 -49 -318 -124 -575 -161 -248 -36 -233 -35 -580 -41
-294 -6 -568 3 -685 23 -19 3 -32 3 -29 -1 14 -15 233 -46 387 -56 544 -33
1065 12 1332 115 71 28 153 83 170 115 12 23 1 27 -20 6z"/>
</g>
</svg>
